<svg width="500" height="500" viewBox="0 0 500 500" fill="none" xmlns="http://www.w3.org/2000/svg">
<rect width="500" height="500" fill="#181818"/>
<path d="M388.497 428C382.671 428 377.947 423.277 377.947 417.45V385.971C377.947 380.144 373.224 375.421 367.397 375.421H335.918C330.092 375.421 325.368 370.698 325.368 364.871V350.918C325.368 345.092 330.092 340.368 335.918 340.368H367.397C373.224 340.368 377.947 335.645 377.947 329.818V298.34C377.947 292.513 382.671 287.789 388.497 287.789H402.45C408.277 287.789 413 292.513 413 298.34V329.818C413 335.645 417.723 340.368 423.55 340.368H455.029C460.856 340.368 465.579 345.092 465.579 350.918V364.871C465.579 370.698 460.856 375.421 455.029 375.421H423.55C417.723 375.421 413 380.144 413 385.971V417.45C413 423.277 408.277 428 402.45 428H388.497ZM108.076 375.421C102.25 375.421 97.5263 370.698 97.5263 364.871V279.026C97.5263 274.187 93.6029 270.263 88.7632 270.263C83.9234 270.263 80 266.34 80 261.5V236.255C80 235.56 80.0686 234.867 80.2049 234.186L95.8301 156.06C96.8164 151.129 101.146 147.579 106.175 147.579H351.772C356.801 147.579 361.131 151.129 362.117 156.06L377.742 234.186C377.879 234.867 377.947 235.56 377.947 236.255V261.5C377.947 266.34 374.024 270.263 369.184 270.263C364.344 270.263 360.421 274.187 360.421 279.026V312.292C360.421 318.119 355.698 322.842 349.871 322.842H335.918C330.092 322.842 325.368 318.119 325.368 312.292V280.813C325.368 274.987 320.645 270.263 314.818 270.263H265.813C259.987 270.263 255.263 274.987 255.263 280.813V364.871C255.263 370.698 250.54 375.421 244.713 375.421H108.076ZM132.579 329.818C132.579 335.645 137.302 340.368 143.129 340.368H209.66C215.487 340.368 220.211 335.645 220.211 329.818V280.813C220.211 274.987 215.487 270.263 209.66 270.263H143.129C137.302 270.263 132.579 274.987 132.579 280.813V329.818ZM108.076 130.053C102.25 130.053 97.5263 125.329 97.5263 119.503V105.55C97.5263 99.7234 102.25 95 108.076 95H349.871C355.698 95 360.421 99.7234 360.421 105.55V119.503C360.421 125.329 355.698 130.053 349.871 130.053H108.076Z" fill="#F8F8F8"/>
</svg>
